<?xml version="1.0" encoding="utf-8"?>
<svg viewBox="0 0 310 300" xmlns="http://www.w3.org/2000/svg">
  <path d="M 282.500 43.080 C 280.850 44.144, 269.050 50.973, 256.278 58.257 C 243.505 65.541, 233.043 72.114, 233.028 72.865 C 232.994 74.547, 238.060 84, 238.996 84 C 239.369 84, 247.960 79.227, 258.087 73.393 C 268.214 67.558, 280.438 60.533, 285.250 57.780 C 290.063 55.027, 293.996 52.488, 293.991 52.137 C 293.965 50.405, 287.799 41.010, 286.730 41.073 C 286.053 41.113, 284.150 42.016, 282.500 43.080 M 294.807 74.526 C 294.466 74.868, 291.782 75.501, 288.843 75.933 C 278.015 77.527, 242.839 84.111, 240.593 84.965 C 238.428 85.788, 238.327 86.181, 239.076 90.920 C 239.518 93.711, 240.157 96.446, 240.498 96.997 C 241.272 98.249, 245.157 98.283, 249.884 97.079 C 251.873 96.572, 256.650 95.645, 260.500 95.019 C 264.350 94.392, 269.525 93.481, 272 92.993 C 274.475 92.506, 281.958 91.130, 288.629 89.937 C 295.300 88.744, 301.293 87.437, 301.947 87.033 C 302.803 86.504, 302.906 84.646, 302.317 80.399 C 301.536 74.772, 301.359 74.486, 298.463 74.203 C 296.794 74.039, 295.149 74.185, 294.807 74.526 M 241.745 99.663 C 240.467 101.886, 238.860 111.254, 239.631 111.982 C 240.352 112.662, 254.026 115.885, 295.848 125.232 C 298.240 125.767, 300.527 125.820, 300.931 125.352 C 302.163 123.922, 304.098 113.692, 303.273 112.964 C 302.848 112.588, 289.750 109.466, 274.167 106.025 C 258.584 102.585, 245.022 99.557, 244.030 99.298 C 243.038 99.038, 242.009 99.202, 241.745 99.663" stroke="none" fill-rule="evenodd" style="fill: rgb(230, 90, 10);" transform="matrix(1, 0, 0, 1, 3.552713678800501e-15, 0)"/>
  <path d="M 21 156 L 21 283 54 283 L 87 283 87 241.500 L 87 200 115.250 199.996 C 145 199.992, 155.294 199.026, 168.058 195.043 C 182.376 190.575, 195.934 182.099, 208.073 170.026 C 215.092 163.046, 217.496 159.803, 221.327 152.141 C 226.478 141.841, 229.671 132.236, 228.350 131.014 C 227.883 130.581, 211.075 125.168, 191 118.984 C 170.925 112.800, 153.975 107.462, 153.334 107.121 C 152.687 106.777, 166.843 96.067, 185.084 83.101 C 203.188 70.231, 218 59.517, 218 59.292 C 218 59.066, 217.626 59.113, 217.168 59.396 C 216.711 59.679, 214.123 57.625, 211.418 54.832 C 198.856 41.863, 178.663 32.989, 155.026 30.053 C 149.908 29.417, 121.692 29, 83.776 29 L 21 29 21 156" stroke="none" fill="#f4f4e4" fill-rule="evenodd" transform="matrix(1, 0, 0, 1, 3.552713678800501e-15, 0)"/>
</svg>