<svg xmlns="http://www.w3.org/2000/svg" width="1120" height="340" viewBox="0 0 1120 340" version="1.1"><path d="M 1082.500 63.080 C 1080.850 64.144, 1069.050 70.973, 1056.278 78.257 C 1043.505 85.541, 1033.043 92.114, 1033.028 92.865 C 1032.994 94.547, 1038.060 104, 1038.996 104 C 1039.369 104, 1047.960 99.227, 1058.087 93.393 C 1068.214 87.558, 1080.438 80.533, 1085.250 77.780 C 1090.063 75.027, 1093.996 72.488, 1093.991 72.137 C 1093.965 70.405, 1087.799 61.010, 1086.730 61.073 C 1086.053 61.113, 1084.150 62.016, 1082.500 63.080 M 1094.807 94.526 C 1094.466 94.868, 1091.782 95.501, 1088.843 95.933 C 1078.015 97.527, 1042.839 104.111, 1040.593 104.965 C 1038.428 105.788, 1038.327 106.181, 1039.076 110.920 C 1039.518 113.711, 1040.157 116.446, 1040.498 116.997 C 1041.272 118.249, 1045.157 118.283, 1049.884 117.079 C 1051.873 116.572, 1056.650 115.645, 1060.500 115.019 C 1064.350 114.392, 1069.525 113.481, 1072 112.993 C 1074.475 112.506, 1081.958 111.130, 1088.629 109.937 C 1095.300 108.744, 1101.293 107.437, 1101.947 107.033 C 1102.803 106.504, 1102.906 104.646, 1102.317 100.399 C 1101.536 94.772, 1101.359 94.486, 1098.463 94.203 C 1096.794 94.039, 1095.149 94.185, 1094.807 94.526 M 1041.745 119.663 C 1040.467 121.886, 1038.860 131.254, 1039.631 131.982 C 1040.352 132.662, 1054.026 135.885, 1095.848 145.232 C 1098.240 145.767, 1100.527 145.820, 1100.931 145.352 C 1102.163 143.922, 1104.098 133.692, 1103.273 132.964 C 1102.848 132.588, 1089.750 129.466, 1074.167 126.025 C 1058.584 122.585, 1045.022 119.557, 1044.030 119.298 C 1043.038 119.038, 1042.009 119.202, 1041.745 119.663" stroke="none" fill="#E65A0A" fill-rule="evenodd"/><path d="M 51.047 128.912 L 99 208.825 99 255.912 L 99 303 132 303 L 165 303 165 253.881 L 165 204.762 211.500 127.516 C 237.075 85.031, 258 49.978, 258 49.622 C 258 49.266, 241.688 49.093, 221.750 49.238 L 185.500 49.500 159.500 97.640 C 145.200 124.117, 133.234 145.622, 132.910 145.430 C 132.585 145.237, 120.210 123.464, 105.410 97.044 L 78.500 49.009 40.797 49.004 L 3.094 49 51.047 128.912 M 311.089 174.766 C 285.563 243.920, 264.477 301.063, 264.232 301.750 C 263.881 302.734, 270.913 303, 297.275 303 L 330.764 303 339.481 277 L 348.198 251 394.987 251 L 441.776 251 450.538 277 L 459.300 303 493.631 303 L 527.962 303 524.963 294.750 C 523.314 290.212, 502.227 233.175, 478.102 168 L 434.240 49.500 395.870 49.266 L 357.500 49.032 311.089 174.766 M 564 176 L 564 303 597 303 L 630 303 630 261.500 L 630 220 658.250 219.996 C 688 219.992, 698.294 219.026, 711.058 215.043 C 725.393 210.570, 738.926 202.104, 751.138 189.969 C 758.605 182.550, 760.465 179.971, 764.861 170.943 C 772.311 155.641, 774.460 145.921, 774.354 128 C 774.287 116.593, 773.819 111.836, 772.162 105.700 C 763.863 74.961, 737.154 54.914, 698.026 50.053 C 692.908 49.417, 664.692 49, 626.776 49 L 564 49 564 176 M 821 176 L 821 303 854 303 L 887 303 887 261.500 L 887 220 915.250 219.996 C 945 219.992, 955.294 219.026, 968.058 215.043 C 982.376 210.575, 995.934 202.099, 1008.073 190.026 C 1015.092 183.046, 1017.496 179.803, 1021.327 172.141 C 1026.478 161.841, 1029.671 152.236, 1028.350 151.014 C 1027.883 150.581, 1011.075 145.168, 991 138.984 C 970.925 132.800, 953.975 127.462, 953.334 127.121 C 952.687 126.777, 966.843 116.067, 985.084 103.101 C 1003.188 90.231, 1018 79.517, 1018 79.292 C 1018 79.066, 1017.626 79.113, 1017.168 79.396 C 1016.711 79.679, 1014.123 77.625, 1011.418 74.832 C 998.856 61.863, 978.663 52.989, 955.026 50.053 C 949.908 49.417, 921.692 49, 883.776 49 L 821 49 821 176" stroke="none" fill="#f3f3e4" fill-rule="evenodd"/></svg>